<?xml version="1.0" encoding="UTF-8"?><svg id="a" xmlns="http://www.w3.org/2000/svg" xmlns:xlink="http://www.w3.org/1999/xlink" viewBox="0 0 1920 719.87"><defs><style>.e{fill:none;}.f{fill:#f9df5a;}.g{fill:#00d56c;}.h{fill:#e89abd;}.i{fill:#654627;}.j{fill:#7d5198;}.k{fill:#332f2e;}.l{fill:#dd4839;}.m{fill:#e1763e;}.n{fill:#20b070;}.o{fill:#55afe1;}.p{fill:#344b99;}.q{clip-path:url(#c);}.r{clip-path:url(#b);}.s{clip-path:url(#d);}</style><clipPath id="b"><path class="e" d="M436.86,120.44c-96.21,0-171.6,75.48-177.69,170.34l42-9.38c10.96-62.47,66.12-120.39,131.54-121.66,77.79-1.5,124.94,52.44,138.62,126.89l39.67-8.86c-12.62-88.13-82.75-157.33-174.14-157.33Z"/></clipPath><clipPath id="c"><circle class="e" cx="428.88" cy="618.61" r="511.29"/></clipPath><clipPath id="d"><path class="g" d="M2499.52,140.43h0c-.07-.01-.14,0-.22,0-.07,0-.15,0-.22,0h0c-115.44,1.2-205.62,92.13-212.94,206.26l50.86-11.36c13.27-75.66,80.08-145.81,159.32-147.34,.93-.02,1.84,0,2.76,0h0c.07,0,.15,0,.22,0s.15,0,.22,0h0c.92,0,1.83-.03,2.76,0,79.24,1.53,146.05,71.68,159.32,147.34l50.86,11.36c-7.32-114.13-97.5-205.06-212.94-206.25Z"/></clipPath></defs><g><g><path d="M149.5,375.63c0-32.54-14.17-38.83-28.86-38.83v-16.79c22.57,0,41.98-7.87,51.95-19.94h16.27v196.27c0,23.62,8.4,34.11,32.01,34.11v17.84H116.97v-17.84c24.14,0,32.54-9.97,32.54-34.11v-120.7Zm17.84-171.08c16.27,0,27.81,12.07,27.81,27.81s-12.6,28.34-28.86,28.34c-14.69,0-27.29-12.07-27.29-28.34s13.65-27.81,28.34-27.81Z"/><path d="M316.91,363.56c29.39-47.23,64.55-64.02,99.19-64.02,64.55,0,82.92,53,82.92,106.53v89.74c0,29.39,14.17,34.64,32.54,34.64v17.84h-104.96v-17.32c19.42,0,32.54-5.77,32.54-35.16v-85.01c0-60.35-28.86-75.57-60.35-75.57s-71.37,27.29-77.67,78.19v82.39c0,28.86,15.74,34.64,33.06,34.64v17.84h-105.48v-17.84c19.42,0,33.06-6.3,33.06-34.64v-122.27c0-32.54-10.5-45.13-35.16-46.71v-14.17l58.25-12.6,12.07,63.5Z"/></g><g><path d="M682.07,548.29h-106.53v-17.32c18.89,0,32.54-6.82,32.54-35.16v-122.27c0-32.54-10.5-45.13-35.16-46.71v-14.17l58.25-12.6,12.07,64.55c15.74-30.44,46.18-64.55,99.19-64.03v46.7c-6.3-1.57-14.17-2.62-22.57-2.62-34.11,0-64.55,18.37-71.9,60.35v90.79c0,27.82,14.17,34.64,34.11,34.64v17.84Z"/><path d="M883.61,555.11c-77.67,0-122.28-53-122.28-128.57s53-128.57,121.75-128.57c64.03,0,106.01,40.93,108.63,106.53l-16.27,16.79h-176.33c4.72,50.9,41.98,100.76,98.66,100.76,36.21,0,59.83-18.89,74-48.28l21.52,12.07c-19.94,41.46-53.53,69.27-109.68,69.27Zm-83.97-159.54h145.89c-.53-34.64-26.24-70.85-73.47-70.85-32.01,0-66.65,23.09-72.42,70.85Z"/><path d="M1212.66,505.78c-16.27,26.76-45.66,45.66-84.49,45.66-57.2,0-106.53-39.36-106.53-121.75s51.43-129.1,115.46-129.1c36.73,0,62.97,17.84,77.67,32.01l18.89-25.71h17.84v188.92c0,24.67,8.92,34.64,32.01,34.64v17.84h-70.85v-42.51Zm-71.37,14.17c39.36,0,65.6-28.34,71.37-67.17v-89.74c-18.89-24.67-43.56-33.59-72.42-33.59-47.23,0-75.57,41.46-75.57,98.66,0,53,25.19,91.84,76.62,91.84Z"/><path d="M1509.7,473.77l21.52,12.07c-19.94,41.46-54.05,69.27-110.21,69.27-74.52,0-121.75-53-121.75-128.57s56.15-127,125.43-127c43.03,0,69.27,11.55,90.26,24.67l-2.1,57.73h-16.27c-11.02-32.54-39.36-53.53-81.87-53.53-49.86,0-73.47,40.41-73.47,86.06,0,55.1,36.73,106.53,93.94,106.53,36.21,0,60.35-17.84,74.52-47.23Z"/><path d="M1546.96,530.44c24.14,0,32.54-9.97,32.54-34.64V255.45c0-45.66-14.17-51.43-32.01-50.38v-13.64l70.32-18.37v183.68c28.34-41.98,62.45-57.2,94.99-57.2,64.55,0,82.92,53,82.92,106.53v89.74c0,24.67,7.87,34.64,31.49,34.64v17.84h-103.91v-17.84c24.14,0,32.54-9.97,32.54-34.64v-85.01c0-60.35-28.86-75.57-60.35-75.57s-71.37,27.29-77.67,78.19v82.92c0,23.62,8.4,34.11,32.01,34.11v17.84h-102.86v-17.84Z"/></g><g><path class="g" d="M436.86,120.44c-96.21,0-171.6,75.48-177.69,170.34l42-9.38c10.96-62.47,66.12-120.39,131.54-121.66,77.79-1.5,124.94,52.44,138.62,126.89l39.67-8.86c-12.62-88.13-82.75-157.33-174.14-157.33Z"/><g class="r"><g class="q"><rect class="j" x="599.46" y="-131.27" width="43.74" height="520.77" transform="translate(969.38 659.76) rotate(-135)"/><rect class="l" x="233.65" y="-122.72" width="43.74" height="520.77" transform="translate(-22.51 221) rotate(-45)"/><rect class="k" x="173.32" y="-61.23" width="42.21" height="519.71" transform="translate(-83.51 195.66) rotate(-45)"/><rect class="i" x="203.01" y="-92.08" width="43.74" height="520.77" transform="translate(-53.15 208.31) rotate(-45)"/><rect class="m" x="265.12" y="-153.15" width="43.74" height="520.77" transform="translate(8.23 234.34) rotate(-45)"/><rect class="f" x="295.76" y="-184" width="43.74" height="520.77" transform="translate(39.02 246.97) rotate(-45)"/><rect class="h" x="661.6" y="-69.44" width="42.21" height="519.71" transform="translate(1030.81 807.82) rotate(-135)"/><rect class="o" x="630.31" y="-100.21" width="43.74" height="520.77" transform="translate(1000.08 734.59) rotate(-135)"/><rect class="p" x="568.82" y="-162.12" width="43.74" height="520.77" transform="translate(938.88 585.43) rotate(-135)"/><rect class="n" x="538.39" y="-193.38" width="43.74" height="520.77" transform="translate(909.04 510.54) rotate(-135)"/></g></g></g></g><g><path class="g" d="M2499.52,140.43h0c-.07-.01-.14,0-.22,0-.07,0-.15,0-.22,0h0c-115.44,1.2-205.62,92.13-212.94,206.26l50.86-11.36c13.27-75.66,80.08-145.81,159.32-147.34,.93-.02,1.84,0,2.76,0h0c.07,0,.15,0,.22,0s.15,0,.22,0h0c.92,0,1.83-.03,2.76,0,79.24,1.53,146.05,71.68,159.32,147.34l50.86,11.36c-7.32-114.13-97.5-205.06-212.94-206.25Z"/><g class="s"><g/></g></g></svg>