<?xml version="1.0" encoding="UTF-8"?><svg id="a" xmlns="http://www.w3.org/2000/svg" xmlns:xlink="http://www.w3.org/1999/xlink" viewBox="0 0 740.86 719.87"><defs><style>.d{fill:none;}.e{fill:#f9df5a;}.f{fill:#00d56c;}.g{fill:#e89abd;}.h{fill:#654627;}.i{fill:#7d5198;}.j{fill:#332f2e;}.k{fill:#bebebf;}.l{fill:#dd4839;}.m{fill:#e1763e;}.n{fill:#20b070;}.o{fill:#55afe1;}.p{fill:#344b99;}.q{clip-path:url(#c);}.r{clip-path:url(#b);}</style><clipPath id="b"><path class="f" d="M368.94,140.43h0c-.07-.01-.14,0-.22,0-.07,0-.15,0-.22,0h0c-115.44,1.2-205.62,92.13-212.94,206.26l50.86-11.36c13.27-75.66,80.08-145.81,159.32-147.34,.93-.02,1.84,0,2.76,0h0c.07,0,.15,0,.22,0s.15,0,.22,0h0c.92,0,1.83-.03,2.76,0,79.24,1.53,146.05,71.68,159.32,147.34l50.86,11.36c-7.32-114.13-97.5-205.06-212.94-206.25Z"/></clipPath><clipPath id="c"><circle class="d" cx="362.32" cy="760.32" r="640.34"/></clipPath></defs><circle class="k" cx="370.43" cy="359.92" r="272.48"/><g><path class="f" d="M368.94,140.43h0c-.07-.01-.14,0-.22,0-.07,0-.15,0-.22,0h0c-115.44,1.2-205.62,92.13-212.94,206.26l50.86-11.36c13.27-75.66,80.08-145.81,159.32-147.34,.93-.02,1.84,0,2.76,0h0c.07,0,.15,0,.22,0s.15,0,.22,0h0c.92,0,1.83-.03,2.76,0,79.24,1.53,146.05,71.68,159.32,147.34l50.86,11.36c-7.32-114.13-97.5-205.06-212.94-206.25Z"/><g class="r"><g class="q"><rect class="i" x="575.96" y="-178.84" width="54.78" height="652.22" transform="translate(925.85 678.03) rotate(-135)"/><rect class="l" x="117.82" y="-168.13" width="54.78" height="652.22" transform="translate(-69.18 148.95) rotate(-45)"/><rect class="j" x="42.25" y="-91.12" width="52.87" height="650.89" transform="translate(-145.58 117.2) rotate(-45)"/><rect class="h" x="79.44" y="-129.76" width="54.78" height="652.22" transform="translate(-107.55 133.05) rotate(-45)"/><rect class="m" x="157.23" y="-206.24" width="54.78" height="652.22" transform="translate(-30.69 165.66) rotate(-45)"/><rect class="e" x="195.61" y="-244.88" width="54.78" height="652.22" transform="translate(7.87 181.48) rotate(-45)"/><rect class="g" x="653.79" y="-101.4" width="52.87" height="650.89" transform="translate(1002.78 863.46) rotate(-135)"/><rect class="o" x="614.59" y="-139.95" width="54.78" height="652.22" transform="translate(964.3 771.75) rotate(-135)"/><rect class="p" x="537.59" y="-217.48" width="54.78" height="652.22" transform="translate(887.66 584.95) rotate(-135)"/><rect class="n" x="499.47" y="-256.63" width="54.78" height="652.22" transform="translate(850.29 491.15) rotate(-135)"/></g></g></g></svg>