<?xml version="1.0" encoding="UTF-8"?><svg id="a" xmlns="http://www.w3.org/2000/svg" viewBox="0 0 1920 719.87"><g><path d="M150.11,382.86c0-32.52-14.16-38.82-28.85-38.82v-16.79c22.56,0,41.97-7.87,51.93-19.93h16.26v196.2c0,23.61,8.39,34.1,32,34.1v17.84H117.58v-17.84c24.13,0,32.52-9.97,32.52-34.1v-120.66Zm17.84-171.02c16.26,0,27.8,12.07,27.8,27.8s-12.59,28.33-28.85,28.33c-14.69,0-27.28-12.07-27.28-28.33s13.64-27.8,28.33-27.8Z"/><path d="M317.45,370.79c29.38-47.21,64.52-64,99.15-64,64.52,0,82.89,52.98,82.89,106.49v89.7c0,29.38,14.16,34.62,32.52,34.62v17.84h-104.92v-17.31c19.41,0,32.52-5.77,32.52-35.15v-84.98c0-60.33-28.85-75.54-60.33-75.54s-71.35,27.28-77.64,78.16v82.36c0,28.85,15.74,34.62,33.05,34.62v17.84h-105.44v-17.84c19.41,0,33.05-6.3,33.05-34.62v-122.23c0-32.52-10.49-45.11-35.15-46.69v-14.16l58.23-12.59,12.07,63.48Z"/></g><g><path d="M682.47,555.45h-106.49v-17.31c18.88,0,32.52-6.82,32.52-35.15v-122.23c0-32.52-10.49-45.11-35.15-46.69v-14.16l58.23-12.59,12.07,64.52c15.74-30.43,46.16-64.52,99.15-64v46.69c-6.3-1.57-14.16-2.62-22.56-2.62-34.1,0-64.52,18.36-71.87,60.33v90.75c0,27.8,14.16,34.62,34.1,34.62v17.84Z"/><path d="M883.93,562.27c-77.64,0-122.23-52.98-122.23-128.52s52.98-128.53,121.7-128.53c64,0,105.97,40.92,108.59,106.49l-16.26,16.79h-176.26c4.72,50.88,41.97,100.72,98.62,100.72,36.2,0,59.8-18.89,73.97-48.26l21.51,12.07c-19.94,41.44-53.51,69.25-109.64,69.25Zm-83.93-159.47h145.84c-.53-34.62-26.23-70.82-73.44-70.82-32,0-66.62,23.08-72.39,70.82Z"/><path d="M1212.85,512.96c-16.26,26.75-45.64,45.64-84.46,45.64-57.18,0-106.49-39.34-106.49-121.7s51.41-129.05,115.41-129.05c36.72,0,62.95,17.84,77.64,32l18.88-25.71h17.84v188.85c0,24.66,8.92,34.62,32,34.62v17.84h-70.82v-42.49Zm-71.34,14.16c39.34,0,65.57-28.33,71.34-67.15v-89.7c-18.89-24.66-43.54-33.57-72.39-33.57-47.21,0-75.54,41.44-75.54,98.62,0,52.98,25.18,91.8,76.59,91.8Z"/><path d="M1509.78,480.96l21.51,12.07c-19.94,41.44-54.03,69.25-110.17,69.25-74.49,0-121.7-52.98-121.7-128.52s56.13-126.95,125.38-126.95c43.02,0,69.25,11.54,90.23,24.66l-2.1,57.7h-16.26c-11.02-32.52-39.35-53.51-81.84-53.51-49.84,0-73.44,40.39-73.44,86.03,0,55.08,36.72,106.49,93.9,106.49,36.2,0,60.33-17.84,74.49-47.21Z"/><path d="M1547.03,537.61c24.13,0,32.52-9.97,32.52-34.62v-240.26c0-45.64-14.16-51.41-32-50.36v-13.64l70.29-18.36v183.61c28.33-41.97,62.43-57.18,94.95-57.18,64.52,0,82.89,52.98,82.89,106.49v89.7c0,24.66,7.87,34.62,31.47,34.62v17.84h-103.87v-17.84c24.13,0,32.52-9.97,32.52-34.62v-84.98c0-60.33-28.85-75.54-60.33-75.54s-71.34,27.28-77.64,78.16v82.89c0,23.61,8.39,34.1,32,34.1v17.84h-102.82v-17.84Z"/></g><path d="M437.35,128.03c-95.88,0-171.01,75.22-177.07,169.75l41.85-9.35c10.92-62.25,65.89-119.98,131.09-121.24,77.52-1.5,124.51,52.26,138.14,126.45l39.54-8.83c-12.57-87.82-82.46-156.79-173.54-156.79Z"/></svg>