<?xml version="1.0" encoding="UTF-8"?><svg id="a" xmlns="http://www.w3.org/2000/svg" viewBox="0 0 740.86 719.87"><defs><style>.b{fill:#00d56c;}</style></defs><path class="b" d="M264.42,103.05h212.03c80.63,0,146.1,65.46,146.1,146.1v212.03c0,80.63-65.46,146.1-146.1,146.1h-212.03c-80.63,0-146.1-65.46-146.1-146.1V249.15c0-80.63,65.46-146.1,146.1-146.1Z"/><g><g><path d="M178.97,351.9c0-7.8-3.39-9.3-6.92-9.3v-4.02c5.41,0,10.06-1.89,12.45-4.78h3.9v47.02c0,5.66,2.01,8.17,7.67,8.17v4.27h-24.89v-4.27c5.78,0,7.8-2.39,7.8-8.17v-28.92Zm4.27-40.99c3.9,0,6.66,2.89,6.66,6.66s-3.02,6.79-6.92,6.79c-3.52,0-6.54-2.89-6.54-6.79s3.27-6.66,6.79-6.66Z"/><path d="M219.08,349.01c7.04-11.32,15.46-15.34,23.76-15.34,15.46,0,19.87,12.7,19.87,25.52v21.5c0,7.04,3.39,8.3,7.8,8.3v4.27h-25.15v-4.15c4.65,0,7.8-1.38,7.8-8.42v-20.37c0-14.46-6.92-18.11-14.46-18.11s-17.1,6.54-18.61,18.73v19.74c0,6.92,3.77,8.3,7.92,8.3v4.27h-25.27v-4.27c4.65,0,7.92-1.51,7.92-8.3v-29.3c0-7.8-2.51-10.81-8.42-11.19v-3.39l13.96-3.02,2.89,15.21Z"/></g><g><path d="M306.57,393.26h-25.52v-4.15c4.53,0,7.8-1.63,7.8-8.42v-29.3c0-7.8-2.51-10.81-8.42-11.19v-3.39l13.96-3.02,2.89,15.46c3.77-7.29,11.06-15.46,23.76-15.34v11.19c-1.51-.38-3.39-.63-5.41-.63-8.17,0-15.46,4.4-17.22,14.46v21.75c0,6.66,3.39,8.3,8.17,8.3v4.27Z"/><path d="M354.85,394.9c-18.61,0-29.3-12.7-29.3-30.8s12.7-30.8,29.17-30.8c15.34,0,25.4,9.81,26.03,25.52l-3.9,4.02h-42.25c1.13,12.2,10.06,24.14,23.64,24.14,8.68,0,14.33-4.53,17.73-11.57l5.16,2.89c-4.78,9.93-12.82,16.6-26.28,16.6Zm-20.12-38.22h34.95c-.13-8.3-6.29-16.97-17.6-16.97-7.67,0-15.97,5.53-17.35,16.97Z"/><path d="M433.68,383.08c-3.9,6.41-10.94,10.94-20.24,10.94-13.7,0-25.52-9.43-25.52-29.17s12.32-30.93,27.66-30.93c8.8,0,15.09,4.27,18.61,7.67l4.53-6.16h4.27v45.26c0,5.91,2.14,8.3,7.67,8.3v4.27h-16.97v-10.18Zm-17.1,3.39c9.43,0,15.72-6.79,17.1-16.09v-21.5c-4.53-5.91-10.44-8.05-17.35-8.05-11.32,0-18.11,9.93-18.11,23.64,0,12.7,6.04,22,18.36,22Z"/><path d="M504.85,375.41l5.16,2.89c-4.78,9.93-12.95,16.6-26.4,16.6-17.85,0-29.17-12.7-29.17-30.8s13.45-30.43,30.05-30.43c10.31,0,16.6,2.77,21.63,5.91l-.5,13.83h-3.9c-2.64-7.8-9.43-12.82-19.61-12.82-11.94,0-17.6,9.68-17.6,20.62,0,13.2,8.8,25.52,22.51,25.52,8.68,0,14.46-4.27,17.85-11.32Z"/><path d="M513.78,388.99c5.78,0,7.8-2.39,7.8-8.3v-57.58c0-10.94-3.39-12.32-7.67-12.07v-3.27l16.85-4.4v44.01c6.79-10.06,14.96-13.7,22.76-13.7,15.46,0,19.87,12.7,19.87,25.52v21.5c0,5.91,1.89,8.3,7.54,8.3v4.27h-24.89v-4.27c5.78,0,7.8-2.39,7.8-8.3v-20.37c0-14.46-6.92-18.11-14.46-18.11s-17.1,6.54-18.61,18.73v19.87c0,5.66,2.01,8.17,7.67,8.17v4.27h-24.64v-4.27Z"/></g><path d="M247.82,290.82c-22.98,0-40.99,18.03-42.44,40.68l10.03-2.24c2.62-14.92,15.79-28.76,31.42-29.06,18.58-.36,29.84,12.53,33.11,30.31l9.48-2.12c-3.01-21.05-19.76-37.58-41.59-37.58Z"/></g></svg>