<?xml version="1.0" encoding="UTF-8"?><svg id="a" xmlns="http://www.w3.org/2000/svg" viewBox="0 0 740.86 719.87"><defs><style>.b{fill:#00d56c;}.c{fill:#fff;}</style></defs><circle cx="370.43" cy="362.8" r="272.48"/><g><g><path class="c" d="M138.86,351.99c0-9.38-4.09-11.2-8.33-11.2v-4.84c6.51,0,12.11-2.27,14.99-5.75h4.69v56.61c0,6.81,2.42,9.84,9.23,9.84v5.15h-29.97v-5.15c6.96,0,9.38-2.88,9.38-9.84v-34.82Zm5.15-49.35c4.69,0,8.02,3.48,8.02,8.02s-3.63,8.17-8.33,8.17c-4.24,0-7.87-3.48-7.87-8.17s3.94-8.02,8.17-8.02Z"/><path class="c" d="M187.15,348.51c8.48-13.62,18.62-18.47,28.61-18.47,18.62,0,23.92,15.29,23.92,30.73v25.88c0,8.48,4.09,9.99,9.38,9.99v5.15h-30.27v-5c5.6,0,9.38-1.67,9.38-10.14v-24.52c0-17.41-8.33-21.8-17.41-21.8s-20.59,7.87-22.4,22.55v23.76c0,8.33,4.54,9.99,9.54,9.99v5.15h-30.43v-5.15c5.6,0,9.54-1.82,9.54-9.99v-35.27c0-9.38-3.03-13.02-10.14-13.47v-4.09l16.8-3.63,3.48,18.32Z"/></g><g><path class="c" d="M292.47,401.8h-30.73v-5c5.45,0,9.38-1.97,9.38-10.14v-35.27c0-9.38-3.03-13.02-10.14-13.47v-4.09l16.8-3.63,3.48,18.62c4.54-8.78,13.32-18.62,28.61-18.47v13.47c-1.82-.45-4.09-.76-6.51-.76-9.84,0-18.62,5.3-20.74,17.41v26.19c0,8.02,4.09,9.99,9.84,9.99v5.15Z"/><path class="c" d="M350.6,403.76c-22.4,0-35.27-15.29-35.27-37.09s15.29-37.09,35.12-37.09c18.47,0,30.58,11.81,31.33,30.73l-4.69,4.84h-50.86c1.36,14.68,12.11,29.06,28.46,29.06,10.44,0,17.26-5.45,21.34-13.93l6.21,3.48c-5.75,11.96-15.44,19.98-31.64,19.98Zm-24.22-46.02h42.08c-.15-9.99-7.57-20.44-21.19-20.44-9.23,0-19.22,6.66-20.89,20.44Z"/><path class="c" d="M445.51,389.53c-4.69,7.72-13.17,13.17-24.37,13.17-16.5,0-30.73-11.35-30.73-35.12s14.83-37.24,33.3-37.24c10.6,0,18.16,5.15,22.4,9.23l5.45-7.42h5.15v54.49c0,7.11,2.57,9.99,9.23,9.99v5.15h-20.44v-12.26Zm-20.59,4.09c11.35,0,18.92-8.17,20.59-19.38v-25.88c-5.45-7.11-12.56-9.69-20.89-9.69-13.62,0-21.8,11.96-21.8,28.46,0,15.29,7.27,26.49,22.1,26.49Z"/><path class="c" d="M531.19,380.3l6.21,3.48c-5.75,11.96-15.59,19.98-31.79,19.98-21.49,0-35.12-15.29-35.12-37.09s16.2-36.63,36.18-36.63c12.41,0,19.98,3.33,26.04,7.11l-.61,16.65h-4.69c-3.18-9.38-11.35-15.44-23.61-15.44-14.38,0-21.19,11.66-21.19,24.82,0,15.89,10.6,30.73,27.1,30.73,10.44,0,17.41-5.15,21.49-13.62Z"/><path class="c" d="M541.94,396.65c6.96,0,9.38-2.88,9.38-9.99v-69.33c0-13.17-4.09-14.83-9.23-14.53v-3.94l20.28-5.3v52.98c8.17-12.11,18.01-16.5,27.4-16.5,18.62,0,23.92,15.29,23.92,30.73v25.88c0,7.11,2.27,9.99,9.08,9.99v5.15h-29.97v-5.15c6.96,0,9.38-2.88,9.38-9.99v-24.52c0-17.41-8.33-21.8-17.41-21.8s-20.59,7.87-22.4,22.55v23.92c0,6.81,2.42,9.84,9.23,9.84v5.15h-29.67v-5.15Z"/></g><path class="b" d="M221.74,278.46c-27.67,0-49.35,21.71-51.09,48.98l12.08-2.7c3.15-17.96,19.01-34.62,37.83-34.98,22.37-.43,35.93,15.08,39.86,36.49l11.41-2.55c-3.63-25.34-23.79-45.24-50.08-45.24Z"/></g></svg>